<svg width="17" height="17" viewBox="0 0 17 17" fill="none" xmlns="http://www.w3.org/2000/svg">
<path d="M8.49984 15.5833C4.58771 15.5833 1.4165 12.4121 1.4165 8.49996C1.4165 4.58783 4.58771 1.41663 8.49984 1.41663C12.412 1.41663 15.5832 4.58783 15.5832 8.49996C15.5832 12.4121 12.412 15.5833 8.49984 15.5833ZM4.96738 12.9313C5.97006 13.7329 7.21611 14.1687 8.49984 14.1666C9.89525 14.1666 11.1724 13.6623 12.1598 12.8265C11.6985 12.3531 11.1469 11.9771 10.5377 11.7206C9.92856 11.4641 9.27414 11.3324 8.61317 11.3333C7.92792 11.3325 7.24999 11.4741 6.62238 11.7492C5.99477 12.0243 5.43118 12.4269 4.96738 12.9313ZM3.97784 11.9141C4.57316 11.2823 5.29156 10.7792 6.08877 10.4356C6.88598 10.0921 7.74509 9.91546 8.61317 9.91663C9.45017 9.91554 10.2791 10.0798 11.0525 10.4C11.8258 10.7202 12.5283 11.19 13.1196 11.7824C13.726 10.9289 14.0841 9.92416 14.1542 8.87956C14.2242 7.83497 14.0036 6.79138 13.5166 5.86457C13.0296 4.93777 12.2955 4.16398 11.3955 3.62907C10.4955 3.09415 9.46493 2.81901 8.4181 2.83418C7.37126 2.84935 6.3491 3.15423 5.465 3.715C4.5809 4.27576 3.86943 5.07049 3.40954 6.01102C2.94964 6.95154 2.75929 8.00109 2.8596 9.04322C2.95992 10.0853 3.34698 11.0793 3.97784 11.9148V11.9141ZM8.49984 9.20829C7.74839 9.20829 7.02772 8.90978 6.49637 8.37843C5.96501 7.84708 5.6665 7.12641 5.6665 6.37496C5.6665 5.62351 5.96501 4.90284 6.49637 4.37149C7.02772 3.84014 7.74839 3.54163 8.49984 3.54163C9.25128 3.54163 9.97195 3.84014 10.5033 4.37149C11.0347 4.90284 11.3332 5.62351 11.3332 6.37496C11.3332 7.12641 11.0347 7.84708 10.5033 8.37843C9.97195 8.90978 9.25128 9.20829 8.49984 9.20829ZM8.49984 7.79163C8.87556 7.79163 9.2359 7.64237 9.50157 7.37669C9.76725 7.11102 9.9165 6.75068 9.9165 6.37496C9.9165 5.99924 9.76725 5.6389 9.50157 5.37322C9.2359 5.10755 8.87556 4.95829 8.49984 4.95829C8.12411 4.95829 7.76378 5.10755 7.4981 5.37322C7.23243 5.6389 7.08317 5.99924 7.08317 6.37496C7.08317 6.75068 7.23243 7.11102 7.4981 7.37669C7.76378 7.64237 8.12411 7.79163 8.49984 7.79163Z" fill="black"/>
</svg>
