<svg width="17" height="17" viewBox="0 0 17 17" fill="none" xmlns="http://www.w3.org/2000/svg">
<path d="M7.79171 6.375H14.875C15.0629 6.375 15.2431 6.44963 15.3759 6.58247C15.5088 6.7153 15.5834 6.89547 15.5834 7.08333V14.1667C15.5834 14.3545 15.5088 14.5347 15.3759 14.6675C15.2431 14.8004 15.0629 14.875 14.875 14.875H7.79171C7.60385 14.875 7.42368 14.8004 7.29085 14.6675C7.15801 14.5347 7.08338 14.3545 7.08338 14.1667V7.08333C7.08338 6.89547 7.15801 6.7153 7.29085 6.58247C7.42368 6.44963 7.60385 6.375 7.79171 6.375ZM8.50005 7.79167V13.4583H14.1667V7.79167H8.50005ZM4.25005 7.49842L5.54488 6.20287L6.54717 7.20517L3.54171 10.2099L0.536255 7.20517L1.53855 6.20287L2.83338 7.49842V5.66667C2.83338 4.72736 3.20652 3.82652 3.87071 3.16233C4.5349 2.49814 5.43574 2.125 6.37505 2.125H9.20838V3.54167H6.37505C5.81146 3.54167 5.27096 3.76555 4.87244 4.16406C4.47393 4.56258 4.25005 5.10308 4.25005 5.66667V7.49842Z" fill="black"/>
</svg>
