<svg width="17" height="17" viewBox="0 0 17 17" fill="none" xmlns="http://www.w3.org/2000/svg">
<path d="M8.49999 9.20835L12.75 15.5834H4.24999L8.49999 9.20835ZM8.49999 11.7584L6.89916 14.1667H10.1008L8.49999 11.7584ZM7.74916 7.48002C7.64477 7.38275 7.56104 7.26545 7.50297 7.13512C7.4449 7.00479 7.41367 6.86409 7.41116 6.72143C7.40864 6.57877 7.43488 6.43706 7.48832 6.30476C7.54176 6.17246 7.6213 6.05228 7.72219 5.95138C7.82308 5.85049 7.94326 5.77095 8.07556 5.71751C8.20786 5.66408 8.34957 5.63783 8.49224 5.64035C8.6349 5.64287 8.77559 5.67409 8.90592 5.73217C9.03626 5.79024 9.15356 5.87397 9.25083 5.97835C9.43851 6.17977 9.54068 6.44617 9.53583 6.72143C9.53097 6.99669 9.41946 7.25932 9.22479 7.45399C9.03012 7.64865 8.7675 7.76016 8.49224 7.76502C8.21698 7.76988 7.95058 7.6677 7.74916 7.48002ZM3.7407 1.97131L4.743 2.97361C3.74684 3.96987 3.18721 5.32104 3.18721 6.7299C3.18721 8.13876 3.74684 9.48992 4.743 10.4862L3.7407 11.4885C3.11574 10.8636 2.61999 10.1217 2.28175 9.30526C1.94352 8.48878 1.76943 7.61367 1.76943 6.7299C1.76943 5.84613 1.94352 4.97101 2.28175 4.15453C2.61999 3.33805 3.11574 2.59619 3.7407 1.97131ZM13.2579 1.97131C13.8828 2.59619 14.3786 3.33805 14.7168 4.15453C15.0551 4.97101 15.2291 5.84613 15.2291 6.7299C15.2291 7.61367 15.0551 8.48878 14.7168 9.30526C14.3786 10.1217 13.8828 10.8636 13.2579 11.4885L12.2556 10.4862C13.2517 9.48992 13.8114 8.13876 13.8114 6.7299C13.8114 5.32104 13.2517 3.96987 12.2556 2.97361L13.2579 1.97131ZM5.74458 3.97448L6.74616 4.97606C6.51592 5.20628 6.33329 5.47959 6.20868 5.78039C6.08407 6.0812 6.01994 6.4036 6.01994 6.72919C6.01994 7.05478 6.08407 7.37718 6.20868 7.67798C6.33329 7.97879 6.51592 8.2521 6.74616 8.48231L5.74458 9.4839C5.01401 8.75329 4.60358 7.7624 4.60358 6.72919C4.60358 5.69598 5.01401 4.70509 5.74458 3.97448ZM11.254 3.97448C11.9846 4.70509 12.395 5.69598 12.395 6.72919C12.395 7.7624 11.9846 8.75329 11.254 9.4839L10.2524 8.48231C10.4826 8.2521 10.6653 7.97879 10.7899 7.67798C10.9145 7.37718 10.9786 7.05478 10.9786 6.72919C10.9786 6.4036 10.9145 6.0812 10.7899 5.78039C10.6653 5.47959 10.4826 5.20628 10.2524 4.97606L11.254 3.97448Z" fill="black"/>
</svg>
