<svg width="17" height="17" viewBox="0 0 17 17" fill="none" xmlns="http://www.w3.org/2000/svg">
<path d="M14.1667 15.5833H2.83333C2.64547 15.5833 2.4653 15.5087 2.33247 15.3758C2.19963 15.243 2.125 15.0628 2.125 14.875V2.12496C2.125 1.9371 2.19963 1.75693 2.33247 1.62409C2.4653 1.49125 2.64547 1.41663 2.83333 1.41663H14.1667C14.3545 1.41663 14.5347 1.49125 14.6675 1.62409C14.8004 1.75693 14.875 1.9371 14.875 2.12496V14.875C14.875 15.0628 14.8004 15.243 14.6675 15.3758C14.5347 15.5087 14.3545 15.5833 14.1667 15.5833ZM13.4583 14.1666V2.83329H3.54167V14.1666H13.4583ZM5.66667 6.37496H11.3333V7.79163H5.66667V6.37496ZM5.66667 9.20829H11.3333V10.625H5.66667V9.20829Z" fill="black"/>
</svg>
