<svg width="17" height="17" viewBox="0 0 17 17" fill="none" xmlns="http://www.w3.org/2000/svg">
<path d="M12.0417 14.1667H4.95832V14.875C4.95832 15.0629 4.8837 15.243 4.75086 15.3759C4.61802 15.5087 4.43785 15.5833 4.24999 15.5833H2.83332C2.64546 15.5833 2.46529 15.5087 2.33246 15.3759C2.19962 15.243 2.12499 15.0629 2.12499 14.875V8.5H1.41666V5.66667H2.12499V3.54167C2.12499 3.16594 2.27425 2.80561 2.53992 2.53993C2.8056 2.27426 3.16593 2.125 3.54166 2.125H13.4583C13.834 2.125 14.1944 2.27426 14.4601 2.53993C14.7257 2.80561 14.875 3.16594 14.875 3.54167V5.66667H15.5833V8.5H14.875V14.875C14.875 15.0629 14.8004 15.243 14.6675 15.3759C14.5347 15.5087 14.3545 15.5833 14.1667 15.5833H12.75C12.5621 15.5833 12.382 15.5087 12.2491 15.3759C12.1163 15.243 12.0417 15.0629 12.0417 14.875V14.1667ZM3.54166 3.54167V7.79167H13.4583V3.54167H3.54166ZM13.4583 9.20833H3.54166V12.75H13.4583V9.20833ZM5.31249 12.0417C5.0307 12.0417 4.76045 11.9297 4.56119 11.7305C4.36193 11.5312 4.24999 11.261 4.24999 10.9792C4.24999 10.6974 4.36193 10.4271 4.56119 10.2279C4.76045 10.0286 5.0307 9.91667 5.31249 9.91667C5.59428 9.91667 5.86453 10.0286 6.06379 10.2279C6.26305 10.4271 6.37499 10.6974 6.37499 10.9792C6.37499 11.261 6.26305 11.5312 6.06379 11.7305C5.86453 11.9297 5.59428 12.0417 5.31249 12.0417ZM11.6875 12.0417C11.4057 12.0417 11.1354 11.9297 10.9362 11.7305C10.7369 11.5312 10.625 11.261 10.625 10.9792C10.625 10.6974 10.7369 10.4271 10.9362 10.2279C11.1354 10.0286 11.4057 9.91667 11.6875 9.91667C11.9693 9.91667 12.2395 10.0286 12.4388 10.2279C12.638 10.4271 12.75 10.6974 12.75 10.9792C12.75 11.261 12.638 11.5312 12.4388 11.7305C12.2395 11.9297 11.9693 12.0417 11.6875 12.0417Z" fill="black"/>
</svg>
