<svg width="17" height="17" viewBox="0 0 17 17" fill="none" xmlns="http://www.w3.org/2000/svg">
<path d="M13.4582 4.95837H16.9998V6.37504H13.4582V4.95837ZM12.0415 8.50004H16.9998V9.91671H12.0415V8.50004ZM14.1665 12.0417H16.9998V13.4584H14.1665V12.0417ZM1.4165 15.5834C1.4165 14.0805 2.01353 12.6391 3.07623 11.5764C4.13894 10.5137 5.58028 9.91671 7.08317 9.91671C8.58606 9.91671 10.0274 10.5137 11.0901 11.5764C12.1528 12.6391 12.7498 14.0805 12.7498 15.5834H11.3332C11.3332 14.4562 10.8854 13.3752 10.0884 12.5782C9.29134 11.7811 8.21034 11.3334 7.08317 11.3334C5.956 11.3334 4.875 11.7811 4.07797 12.5782C3.28094 13.3752 2.83317 14.4562 2.83317 15.5834H1.4165ZM7.08317 9.20837C4.73505 9.20837 2.83317 7.3065 2.83317 4.95837C2.83317 2.61025 4.73505 0.708374 7.08317 0.708374C9.4313 0.708374 11.3332 2.61025 11.3332 4.95837C11.3332 7.3065 9.4313 9.20837 7.08317 9.20837ZM7.08317 7.79171C8.64859 7.79171 9.9165 6.52379 9.9165 4.95837C9.9165 3.39296 8.64859 2.12504 7.08317 2.12504C5.51775 2.12504 4.24984 3.39296 4.24984 4.95837C4.24984 6.52379 5.51775 7.79171 7.08317 7.79171Z" fill="black"/>
</svg>
