<svg width="17" height="17" viewBox="0 0 17 17" fill="none" xmlns="http://www.w3.org/2000/svg">
<path d="M12.0422 8.49996C12.2301 8.49996 12.4102 8.57459 12.5431 8.70743C12.6759 8.84026 12.7505 9.02043 12.7505 9.20829V15.5833H4.25054V9.20829C4.25054 9.02043 4.32517 8.84026 4.45801 8.70743C4.59085 8.57459 4.77102 8.49996 4.95888 8.49996H12.0422ZM7.08388 9.91663H5.66721V11.3333H7.08388V9.91663ZM8.50054 4.24996C9.28994 4.24972 10.0638 4.46935 10.7354 4.88421C11.407 5.29907 11.9498 5.89278 12.3029 6.59879L11.035 7.23275C10.7998 6.76182 10.438 6.36573 9.99029 6.08889C9.54258 5.81205 9.02659 5.6654 8.50019 5.6654C7.97379 5.6654 7.4578 5.81205 7.01009 6.08889C6.56237 6.36573 6.20062 6.76182 5.96542 7.23275L4.69821 6.59879C5.05133 5.89278 5.59411 5.29907 6.2657 4.88421C6.93729 4.46935 7.71115 4.24972 8.50054 4.24996ZM8.50054 1.41663C9.81615 1.41634 11.1058 1.78246 12.2251 2.47393C13.3443 3.16541 14.2488 4.15493 14.8373 5.33158L13.5701 5.96554C13.0993 5.02415 12.3757 4.23246 11.4803 3.67922C10.5849 3.12599 9.55308 2.83307 8.50054 2.83329C7.44801 2.83307 6.41621 3.12599 5.5208 3.67922C4.62538 4.23246 3.90175 5.02415 3.431 5.96554L2.16309 5.33158C2.75161 4.15482 3.65626 3.16523 4.77562 2.47375C5.89498 1.78226 7.18482 1.41621 8.50054 1.41663Z" fill="black"/>
</svg>
