<svg width="17" height="17" viewBox="0 0 17 17" fill="none" xmlns="http://www.w3.org/2000/svg">
<path d="M8.49984 15.5833C4.58771 15.5833 1.4165 12.4121 1.4165 8.49996C1.4165 4.58783 4.58771 1.41663 8.49984 1.41663C12.412 1.41663 15.5832 4.58783 15.5832 8.49996C15.5832 12.4121 12.412 15.5833 8.49984 15.5833ZM8.49984 14.1666C10.0027 14.1666 11.4441 13.5696 12.5068 12.5069C13.5695 11.4442 14.1665 10.0029 14.1665 8.49996C14.1665 6.99707 13.5695 5.55573 12.5068 4.49302C11.4441 3.43032 10.0027 2.83329 8.49984 2.83329C6.99694 2.83329 5.55561 3.43032 4.4929 4.49302C3.43019 5.55573 2.83317 6.99707 2.83317 8.49996C2.83317 10.0029 3.43019 11.4442 4.4929 12.5069C5.55561 13.5696 6.99694 14.1666 8.49984 14.1666ZM9.20817 7.79163H11.3332L7.7915 12.75V9.20829H5.6665L9.20817 4.24996V7.79163Z" fill="black"/>
</svg>
