<svg width="17" height="17" viewBox="0 0 17 17" fill="none" xmlns="http://www.w3.org/2000/svg">
<path d="M8.50002 15.5834C4.5879 15.5834 1.41669 12.4121 1.41669 8.50002C1.41669 4.5879 4.5879 1.41669 8.50002 1.41669C12.4121 1.41669 15.5834 4.5879 15.5834 8.50002C15.5834 12.4121 12.4121 15.5834 8.50002 15.5834ZM8.50002 14.1667C10.0029 14.1667 11.4443 13.5697 12.507 12.507C13.5697 11.4443 14.1667 10.0029 14.1667 8.50002C14.1667 6.99713 13.5697 5.55579 12.507 4.49308C11.4443 3.43038 10.0029 2.83335 8.50002 2.83335C6.99713 2.83335 5.55579 3.43038 4.49308 4.49308C3.43038 5.55579 2.83335 6.99713 2.83335 8.50002C2.83335 10.0029 3.43038 11.4443 4.49308 12.507C5.55579 13.5697 6.99713 14.1667 8.50002 14.1667ZM9.20835 7.79169H11.3334L7.79169 12.75V9.20835H5.66669L9.20835 4.25002V7.79169Z" fill="black"/>
</svg>
