<svg width="23" height="25" viewBox="0 0 23 25" fill="none" xmlns="http://www.w3.org/2000/svg">
<g filter="url(#filter0_d)">
<path d="M7.41648 5.253C6.51338 6.19033 5.9605 7.40998 5.85076 8.70695C5.74102 10.0039 6.08111 11.2991 6.81387 12.3749C7.54663 13.4506 8.62739 14.2413 9.87447 14.6141C11.1216 14.9868 12.459 14.9189 13.6619 14.4217C13.7433 13.8904 13.5648 13.3804 13.4919 13.2019C13.3289 12.8053 12.792 12.1274 11.896 11.1874C11.6566 10.936 11.6721 10.7426 11.7579 10.1695L11.7671 10.1051C11.8251 9.71267 11.9229 9.48034 13.2439 9.27067C13.9154 9.16442 14.0918 9.43217 14.3362 9.80404L14.4184 9.92588C14.6507 10.2659 14.8228 10.3438 15.0828 10.4614C15.1996 10.5145 15.3449 10.5818 15.5396 10.6916C16.0015 10.9558 16.0015 11.254 16.0015 11.9071V11.9815C16.0015 12.2584 15.9746 12.5021 15.9321 12.7139C16.4756 12.0317 16.8544 11.2333 17.0389 10.3808C17.2234 9.52825 17.2087 8.64466 16.9959 7.79877C16.783 6.95289 16.3778 6.16753 15.8119 5.50385C15.2459 4.84017 14.5344 4.31606 13.7327 3.97233C13.341 4.23654 12.8034 4.61125 12.6156 4.86838C12.52 4.99942 12.384 5.67021 11.9427 5.72546C11.828 5.73963 11.6729 5.72971 11.5085 5.71908C11.0679 5.69075 10.4659 5.65179 10.2732 6.17525C10.1506 6.50675 10.1294 7.40775 10.5254 7.87525C10.5891 7.94963 10.6011 8.08775 10.5579 8.24288C10.5013 8.44617 10.3872 8.57013 10.3511 8.59563C10.2831 8.55596 10.1471 8.398 10.0543 8.29104C9.8326 8.0325 9.55494 7.71021 9.19652 7.61104C9.06619 7.57492 8.9231 7.54517 8.78356 7.51542C8.39469 7.43396 7.95481 7.34117 7.8521 7.123C7.77702 6.96292 7.77773 6.74263 7.77773 6.51029C7.77773 6.21492 7.77773 5.88129 7.63323 5.55758C7.58299 5.44206 7.50917 5.33832 7.41648 5.253ZM11.5 16.2655C7.5879 16.2655 4.41669 13.0943 4.41669 9.18213C4.41669 5.27 7.5879 2.09879 11.5 2.09879C15.4121 2.09879 18.5834 5.27 18.5834 9.18213C18.5834 13.0943 15.4121 16.2655 11.5 16.2655Z" fill="black"/>
</g>
<defs>
<filter id="filter0_d" x="-1" y="0.682129" width="25" height="25" filterUnits="userSpaceOnUse" color-interpolation-filters="sRGB">
<feFlood flood-opacity="0" result="BackgroundImageFix"/>
<feColorMatrix in="SourceAlpha" type="matrix" values="0 0 0 0 0 0 0 0 0 0 0 0 0 0 0 0 0 0 127 0"/>
<feOffset dy="4"/>
<feGaussianBlur stdDeviation="2"/>
<feColorMatrix type="matrix" values="0 0 0 0 0 0 0 0 0 0 0 0 0 0 0 0 0 0 0.25 0"/>
<feBlend mode="normal" in2="BackgroundImageFix" result="effect1_dropShadow"/>
<feBlend mode="normal" in="SourceGraphic" in2="effect1_dropShadow" result="shape"/>
</filter>
</defs>
</svg>
