<svg width="15" height="15" viewBox="0 0 15 15" fill="none" xmlns="http://www.w3.org/2000/svg">
<path d="M3.41678 3.25302C2.51369 4.19035 1.9608 5.41001 1.85106 6.70697C1.74132 8.00394 2.08141 9.29915 2.81417 10.3749C3.54694 11.4506 4.62769 12.2413 5.87478 12.6141C7.12187 12.9868 8.45926 12.9189 9.66216 12.4217C9.74362 11.8904 9.56512 11.3804 9.49216 11.2019C9.32924 10.8053 8.79233 10.1274 7.89628 9.18744C7.65687 8.93598 7.67245 8.74261 7.75816 8.16957L7.76737 8.10511C7.82545 7.71269 7.9232 7.48036 9.24424 7.27069C9.91574 7.16444 10.0921 7.43219 10.3365 7.80407L10.4187 7.9259C10.651 8.2659 10.8231 8.34382 11.0831 8.4614C11.2 8.51452 11.3452 8.58182 11.54 8.69161C12.0018 8.95582 12.0018 9.25402 12.0018 9.90711V9.98148C12.0018 10.2584 11.9749 10.5021 11.9324 10.7139C12.4759 10.0317 12.8547 9.23329 13.0392 8.38078C13.2237 7.52828 13.209 6.64468 12.9962 5.7988C12.7833 4.95291 12.3782 4.16756 11.8122 3.50387C11.2462 2.84019 10.5347 2.31608 9.73299 1.97236C9.34128 2.23657 8.80366 2.61127 8.61595 2.8684C8.52033 2.99944 8.38433 3.67023 7.94303 3.72548C7.82828 3.73965 7.67316 3.72973 7.50883 3.71911C7.06824 3.69077 6.46616 3.65182 6.27349 4.17527C6.15095 4.50677 6.1297 5.40777 6.52566 5.87527C6.58941 5.94965 6.60145 6.08777 6.55824 6.2429C6.50158 6.44619 6.38753 6.57015 6.35141 6.59565C6.28341 6.55598 6.14741 6.39802 6.05462 6.29107C5.83291 6.03252 5.55524 5.71023 5.19683 5.61107C5.06649 5.57494 4.92341 5.54519 4.78387 5.51544C4.39499 5.43398 3.95512 5.34119 3.85241 5.12302C3.77733 4.96294 3.77803 4.74265 3.77803 4.51032C3.77803 4.21494 3.77803 3.88132 3.63353 3.55761C3.5833 3.44208 3.50947 3.33834 3.41678 3.25302ZM7.50033 14.2655C3.5882 14.2655 0.416992 11.0943 0.416992 7.18215C0.416992 3.27002 3.5882 0.0988159 7.50033 0.0988159C11.4125 0.0988159 14.5837 3.27002 14.5837 7.18215C14.5837 11.0943 11.4125 14.2655 7.50033 14.2655Z" fill="black"/>
</svg>
