<svg width="29" height="30" viewBox="0 0 29 30" fill="none" xmlns="http://www.w3.org/2000/svg">
<g filter="url(#filter0_d)">
<path d="M9.45563 5.64638C8.34004 6.80425 7.65706 8.31088 7.5215 9.91302C7.38594 11.5152 7.80605 13.1151 8.71123 14.444C9.6164 15.7728 10.9515 16.7496 12.492 17.21C14.0325 17.6705 15.6846 17.5866 17.1705 16.9724C17.2711 16.3161 17.0506 15.6861 16.9605 15.4656C16.7593 14.9756 16.096 14.1383 14.9891 12.9771C14.6934 12.6665 14.7126 12.4276 14.8185 11.7198L14.8299 11.6401C14.9016 11.1554 15.0224 10.8684 16.6543 10.6094C17.4838 10.4781 17.7016 10.8089 18.0035 11.2683L18.105 11.4187C18.392 11.8387 18.6046 11.935 18.9258 12.0802C19.0701 12.1459 19.2495 12.229 19.4901 12.3646C20.0606 12.691 20.0606 13.0594 20.0606 13.8661V13.958C20.0606 14.3001 20.0274 14.6011 19.9749 14.8628C20.6463 14.0201 21.1142 13.0338 21.3421 11.9807C21.5701 10.9276 21.5519 9.83607 21.289 8.79115C21.0261 7.74624 20.5256 6.77609 19.8264 5.95625C19.1272 5.1364 18.2483 4.48898 17.258 4.06437C16.7741 4.39075 16.11 4.85362 15.8781 5.17125C15.76 5.33312 15.592 6.16175 15.0469 6.23C14.9051 6.2475 14.7135 6.23525 14.5105 6.22213C13.9663 6.18713 13.2225 6.139 12.9845 6.78562C12.8331 7.19513 12.8069 8.30812 13.296 8.88562C13.3747 8.9775 13.3896 9.14812 13.3363 9.33975C13.2663 9.59087 13.1254 9.744 13.0808 9.7755C12.9968 9.7265 12.8287 9.53137 12.7141 9.39925C12.4402 9.07987 12.0972 8.68175 11.6545 8.55925C11.4935 8.51462 11.3168 8.47788 11.1444 8.44113C10.664 8.3405 10.1206 8.22588 9.99375 7.95638C9.901 7.75863 9.90188 7.4865 9.90188 7.1995C9.90188 6.83462 9.90188 6.4225 9.72337 6.02262C9.66132 5.87992 9.57012 5.75176 9.45563 5.64638ZM14.5 19.25C9.66738 19.25 5.75 15.3326 5.75 10.5C5.75 5.66738 9.66738 1.75 14.5 1.75C19.3326 1.75 23.25 5.66738 23.25 10.5C23.25 15.3326 19.3326 19.25 14.5 19.25Z" fill="black"/>
</g>
<defs>
<filter id="filter0_d" x="-0.941176" y="0" width="30.8824" height="30.8824" filterUnits="userSpaceOnUse" color-interpolation-filters="sRGB">
<feFlood flood-opacity="0" result="BackgroundImageFix"/>
<feColorMatrix in="SourceAlpha" type="matrix" values="0 0 0 0 0 0 0 0 0 0 0 0 0 0 0 0 0 0 127 0"/>
<feOffset dy="4.94118"/>
<feGaussianBlur stdDeviation="2.47059"/>
<feColorMatrix type="matrix" values="0 0 0 0 0 0 0 0 0 0 0 0 0 0 0 0 0 0 0.25 0"/>
<feBlend mode="normal" in2="BackgroundImageFix" result="effect1_dropShadow"/>
<feBlend mode="normal" in="SourceGraphic" in2="effect1_dropShadow" result="shape"/>
</filter>
</defs>
</svg>
