<svg width="17" height="18" viewBox="0 0 17 18" fill="none" xmlns="http://www.w3.org/2000/svg">
<path d="M4.37044 13.4321C4.51678 13.0174 4.78817 12.6582 5.1472 12.4042C5.50622 12.1502 5.93521 12.0137 6.37502 12.0137C6.81483 12.0137 7.24382 12.1502 7.60285 12.4042C7.96187 12.6582 8.23326 13.0174 8.3796 13.4321H15.5834V14.8488H8.3796C8.23326 15.2635 7.96187 15.6227 7.60285 15.8767C7.24382 16.1308 6.81483 16.2672 6.37502 16.2672C5.93521 16.2672 5.50622 16.1308 5.1472 15.8767C4.78817 15.6227 4.51678 15.2635 4.37044 14.8488H1.41669V13.4321H4.37044ZM8.62044 8.4738C8.76678 8.05904 9.03817 7.6999 9.3972 7.44586C9.75622 7.19182 10.1852 7.05539 10.625 7.05539C11.0648 7.05539 11.4938 7.19182 11.8528 7.44586C12.2119 7.6999 12.4833 8.05904 12.6296 8.4738H15.5834V9.89046H12.6296C12.4833 10.3052 12.2119 10.6644 11.8528 10.9184C11.4938 11.1724 11.0648 11.3089 10.625 11.3089C10.1852 11.3089 9.75622 11.1724 9.3972 10.9184C9.03817 10.6644 8.76678 10.3052 8.62044 9.89046H1.41669V8.4738H8.62044ZM4.37044 3.51546C4.51678 3.10071 4.78817 2.74156 5.1472 2.48752C5.50622 2.23348 5.93521 2.09706 6.37502 2.09706C6.81483 2.09706 7.24382 2.23348 7.60285 2.48752C7.96187 2.74156 8.23326 3.10071 8.3796 3.51546H15.5834V4.93213H8.3796C8.23326 5.34688 7.96187 5.70603 7.60285 5.96007C7.24382 6.21411 6.81483 6.35053 6.37502 6.35053C5.93521 6.35053 5.50622 6.21411 5.1472 5.96007C4.78817 5.70603 4.51678 5.34688 4.37044 4.93213H1.41669V3.51546H4.37044ZM6.37502 4.93213C6.56288 4.93213 6.74305 4.8575 6.87589 4.72466C7.00873 4.59183 7.08335 4.41166 7.08335 4.2238C7.08335 4.03594 7.00873 3.85577 6.87589 3.72293C6.74305 3.59009 6.56288 3.51546 6.37502 3.51546C6.18716 3.51546 6.00699 3.59009 5.87415 3.72293C5.74132 3.85577 5.66669 4.03594 5.66669 4.2238C5.66669 4.41166 5.74132 4.59183 5.87415 4.72466C6.00699 4.8575 6.18716 4.93213 6.37502 4.93213ZM10.625 9.89046C10.8129 9.89046 10.993 9.81584 11.1259 9.683C11.2587 9.55016 11.3334 9.36999 11.3334 9.18213C11.3334 8.99427 11.2587 8.8141 11.1259 8.68126C10.993 8.54843 10.8129 8.4738 10.625 8.4738C10.4372 8.4738 10.257 8.54843 10.1242 8.68126C9.99132 8.8141 9.91669 8.99427 9.91669 9.18213C9.91669 9.36999 9.99132 9.55016 10.1242 9.683C10.257 9.81584 10.4372 9.89046 10.625 9.89046ZM6.37502 14.8488C6.56288 14.8488 6.74305 14.7742 6.87589 14.6413C7.00873 14.5085 7.08335 14.3283 7.08335 14.1405C7.08335 13.9526 7.00873 13.7724 6.87589 13.6396C6.74305 13.5068 6.56288 13.4321 6.37502 13.4321C6.18716 13.4321 6.00699 13.5068 5.87415 13.6396C5.74132 13.7724 5.66669 13.9526 5.66669 14.1405C5.66669 14.3283 5.74132 14.5085 5.87415 14.6413C6.00699 14.7742 6.18716 14.8488 6.37502 14.8488Z" fill="black"/>
</svg>
