<svg width="17" height="17" viewBox="0 0 17 17" fill="none" xmlns="http://www.w3.org/2000/svg">
<path d="M13.7239 10.698C14.1836 9.60593 14.2893 8.39731 14.0265 7.24203C13.7636 6.08675 13.1452 5.04291 12.2584 4.25727C11.3715 3.47163 10.2607 2.9837 9.08212 2.86207C7.90357 2.74045 6.71653 2.99125 5.6879 3.57922L4.98524 2.34884C6.06023 1.73445 7.27754 1.41269 8.51571 1.41567C9.75389 1.41865 10.9696 1.74627 12.0417 2.36584C15.2221 4.20184 16.4404 8.13309 14.9579 11.4113L15.9084 11.9595L12.9582 13.5278L12.8414 10.1887L13.7239 10.698ZM3.27603 6.30205C2.81642 7.39409 2.71063 8.60271 2.97351 9.75799C3.2364 10.9133 3.85475 11.9571 4.74162 12.7427C5.6285 13.5284 6.7393 14.0163 7.91785 14.1379C9.09641 14.2596 10.2834 14.0088 11.3121 13.4208L12.0147 14.6512C10.9397 15.2656 9.72244 15.5873 8.48426 15.5844C7.24608 15.5814 6.03034 15.2537 4.95832 14.6342C1.7779 12.7982 0.55957 8.86693 2.04211 5.58876L1.09082 5.04122L4.04103 3.47297L4.1579 6.81205L3.27532 6.30276L3.27603 6.30205ZM6.02082 9.91668H9.91665C10.0106 9.91668 10.1007 9.87936 10.1671 9.81294C10.2335 9.74653 10.2708 9.65644 10.2708 9.56251C10.2708 9.46858 10.2335 9.3785 10.1671 9.31208C10.1007 9.24566 10.0106 9.20834 9.91665 9.20834H7.08332C6.61367 9.20834 6.16325 9.02177 5.83115 8.68968C5.49906 8.35758 5.31249 7.90716 5.31249 7.43751C5.31249 6.96786 5.49906 6.51744 5.83115 6.18534C6.16325 5.85325 6.61367 5.66668 7.08332 5.66668H7.79165V4.95834H9.20832V5.66668H10.9792V7.08334H7.08332C6.98939 7.08334 6.89931 7.12066 6.83289 7.18708C6.76647 7.2535 6.72915 7.34358 6.72915 7.43751C6.72915 7.53144 6.76647 7.62153 6.83289 7.68794C6.89931 7.75436 6.98939 7.79168 7.08332 7.79168H9.91665C10.3863 7.79168 10.8367 7.97825 11.1688 8.31034C11.5009 8.64244 11.6875 9.09286 11.6875 9.56251C11.6875 10.0322 11.5009 10.4826 11.1688 10.8147C10.8367 11.1468 10.3863 11.3333 9.91665 11.3333H9.20832V12.0417H7.79165V11.3333H6.02082V9.91668Z" fill="black"/>
</svg>
