<svg width="16" height="14" viewBox="0 0 16 14" fill="none" xmlns="http://www.w3.org/2000/svg">
<path d="M7.79165 5.05714H14.875C15.0628 5.05714 15.243 5.13177 15.3759 5.26461C15.5087 5.39745 15.5833 5.57762 15.5833 5.76548V12.8488C15.5833 13.0367 15.5087 13.2168 15.3759 13.3497C15.243 13.4825 15.0628 13.5571 14.875 13.5571H7.79165C7.60379 13.5571 7.42362 13.4825 7.29078 13.3497C7.15795 13.2168 7.08332 13.0367 7.08332 12.8488V5.76548C7.08332 5.57762 7.15795 5.39745 7.29078 5.26461C7.42362 5.13177 7.60379 5.05714 7.79165 5.05714ZM8.49999 6.47381V12.1405H14.1667V6.47381H8.49999ZM4.24999 6.18056L5.54482 4.88502L6.54711 5.88731L3.54165 8.89206L0.536194 5.88731L1.53849 4.88502L2.83332 6.18056V4.34881C2.83332 3.4095 3.20646 2.50867 3.87065 1.84447C4.53484 1.18028 5.43568 0.807144 6.37499 0.807144H9.20832V2.22381H6.37499C5.8114 2.22381 5.2709 2.44769 4.87238 2.84621C4.47387 3.24472 4.24999 3.78523 4.24999 4.34881V6.18056Z" fill="black"/>
</svg>
