<svg width="16" height="14" viewBox="0 0 16 14" fill="none" xmlns="http://www.w3.org/2000/svg">
<path d="M7.79159 5.05714H14.8749C15.0628 5.05714 15.243 5.13177 15.3758 5.26461C15.5086 5.39745 15.5833 5.57762 15.5833 5.76548V12.8488C15.5833 13.0367 15.5086 13.2168 15.3758 13.3497C15.243 13.4825 15.0628 13.5571 14.8749 13.5571H7.79159C7.60373 13.5571 7.42356 13.4825 7.29072 13.3497C7.15789 13.2168 7.08326 13.0367 7.08326 12.8488V5.76548C7.08326 5.57762 7.15789 5.39745 7.29072 5.26461C7.42356 5.13177 7.60373 5.05714 7.79159 5.05714ZM8.49992 6.47381V12.1405H14.1666V6.47381H8.49992ZM4.24992 6.18056L5.54476 4.88502L6.54705 5.88731L3.54159 8.89206L0.536133 5.88731L1.53842 4.88502L2.83326 6.18056V4.34881C2.83326 3.4095 3.2064 2.50867 3.87059 1.84447C4.53478 1.18028 5.43562 0.807144 6.37492 0.807144H9.20826V2.22381H6.37492C5.81134 2.22381 5.27084 2.44769 4.87232 2.84621C4.47381 3.24472 4.24992 3.78523 4.24992 4.34881V6.18056Z" fill="black"/>
</svg>
