<svg width="17" height="17" viewBox="0 0 17 17" fill="none" xmlns="http://www.w3.org/2000/svg">
<path d="M14.875 4.78623L13.4584 6.2029V2.83335H7.08335V6.37502H3.54168V14.1667H13.4584V12.2138L14.875 10.7971V14.8807C14.8748 15.0671 14.8006 15.2458 14.6688 15.3776C14.5369 15.5093 14.3581 15.5834 14.1716 15.5834H2.82839C2.73537 15.5827 2.64339 15.5637 2.5577 15.5275C2.47201 15.4913 2.39429 15.4386 2.32897 15.3724C2.26366 15.3062 2.21203 15.2277 2.17703 15.1415C2.14204 15.0553 2.12436 14.9631 2.12502 14.8701V5.66669L6.37714 1.41669H14.1653C14.5563 1.41669 14.875 1.73898 14.875 2.11935V4.78623ZM15.4261 6.23831L16.4277 7.2406L10.9183 12.75L9.91527 12.7486L9.91668 11.7484L15.4261 6.23902V6.23831Z" fill="black"/>
</svg>
