<svg width="17" height="13" viewBox="0 0 17 13" fill="none" xmlns="http://www.w3.org/2000/svg">
<path d="M3.54134 4.37498C3.7292 4.37498 3.90937 4.44961 4.04221 4.58244C4.17505 4.71528 4.24967 4.89545 4.24967 5.08331C5.36257 5.08167 6.44337 5.45608 7.31676 6.14581H8.85384C9.79734 6.14581 10.6459 6.55594 11.2289 7.2076L13.458 7.20831C14.1276 7.20813 14.7835 7.39774 15.3496 7.75518C15.9158 8.11261 16.3691 8.62321 16.6568 9.22777C14.9816 11.4385 12.2694 12.875 9.20801 12.875C7.23176 12.875 5.56009 12.4479 4.20717 11.7006C4.15762 11.8373 4.06709 11.9554 3.94794 12.0389C3.82878 12.1223 3.68679 12.1669 3.54134 12.1666H1.41634C1.22848 12.1666 1.04831 12.092 0.915474 11.9592C0.782636 11.8263 0.708008 11.6462 0.708008 11.4583V5.08331C0.708008 4.89545 0.782636 4.71528 0.915474 4.58244C1.04831 4.44961 1.22848 4.37498 1.41634 4.37498H3.54134ZM4.25038 6.49998L4.24967 10.0565L4.28155 10.0799C5.55301 10.9724 7.20909 11.4583 9.20801 11.4583C11.3358 11.4583 13.3156 10.6395 14.7578 9.24123L14.852 9.14702L14.767 9.07619C14.4325 8.81422 14.0271 8.65876 13.6032 8.62994L13.458 8.62498L11.962 8.62427C12.0137 8.85235 12.0413 9.08965 12.0413 9.33331V10.0416H5.66634V8.62498L10.4759 8.62427L10.4518 8.56902C10.3161 8.28536 10.1073 8.04295 9.84687 7.86668C9.58645 7.69041 9.2838 7.58664 8.97001 7.56602L8.85384 7.56248H6.77842C6.44927 7.22583 6.05612 6.9584 5.62209 6.77593C5.18806 6.59346 4.72192 6.49964 4.25109 6.49998H4.25038ZM2.83301 5.79165H2.12467V10.75H2.83301V5.79165ZM9.66559 0.532271L9.91634 0.783729L10.1671 0.532979C10.3313 0.367384 10.5266 0.235851 10.7417 0.145932C10.9569 0.0560136 11.1877 0.00947971 11.4209 0.00900231C11.6541 0.0085249 11.8851 0.0541133 12.1007 0.14315C12.3162 0.232187 12.512 0.362919 12.6769 0.527841C12.8418 0.692762 12.9725 0.888626 13.0614 1.10419C13.1504 1.31975 13.1959 1.55076 13.1954 1.78396C13.1948 2.01716 13.1482 2.24796 13.0583 2.4631C12.9683 2.67824 12.8367 2.87349 12.6711 3.03765L9.91634 5.79165L7.16092 3.03623C6.99533 2.87203 6.8638 2.67674 6.77388 2.46157C6.68396 2.2464 6.63743 2.01559 6.63695 1.78239C6.63647 1.54919 6.68206 1.31819 6.7711 1.10266C6.86013 0.887124 6.99087 0.691298 7.15579 0.526423C7.32071 0.361548 7.51657 0.230871 7.73213 0.141895C7.94769 0.052919 8.1787 0.00739601 8.4119 0.00793938C8.6451 0.00848274 8.8759 0.0550818 9.09104 0.145061C9.30619 0.235041 9.50144 0.366629 9.66559 0.532271ZM8.16392 1.53456C8.10522 1.59294 8.06882 1.67005 8.06106 1.75248C8.05329 1.83491 8.07465 1.91745 8.12142 1.98577L8.16251 2.03465L9.91634 3.78706L11.6702 2.03465C11.7288 1.97604 11.7651 1.89871 11.7726 1.81613C11.7801 1.73355 11.7584 1.65095 11.7113 1.58273L11.6702 1.53315C11.6115 1.47458 11.5341 1.43847 11.4515 1.43109C11.369 1.42371 11.2864 1.44554 11.2183 1.49277L11.1687 1.53385L9.91563 2.78619L8.66401 1.53244L8.61584 1.49277C8.54762 1.44563 8.46502 1.42392 8.38244 1.43143C8.29986 1.43894 8.22253 1.47518 8.16392 1.53385V1.53456Z" fill="black"/>
</svg>
