<svg width="25" height="23" viewBox="0 0 25 23" fill="none" xmlns="http://www.w3.org/2000/svg">
<g filter="url(#filter0_d)">
<path d="M7.54165 6.375C7.72951 6.375 7.90968 6.44963 8.04251 6.58247C8.17535 6.71531 8.24998 6.89547 8.24998 7.08333C9.36287 7.0817 10.4437 7.45611 11.3171 8.14583H12.8541C13.7976 8.14583 14.6462 8.55596 15.2292 9.20763L17.4583 9.20833C18.1279 9.20815 18.7838 9.39777 19.3499 9.7552C19.9161 10.1126 20.3694 10.6232 20.6571 11.2278C18.9819 13.4385 16.2697 14.875 13.2083 14.875C11.2321 14.875 9.5604 14.4479 8.20748 13.7006C8.15793 13.8373 8.0674 13.9555 7.94824 14.0389C7.82908 14.1223 7.6871 14.1669 7.54165 14.1667H5.41665C5.22878 14.1667 5.04862 14.092 4.91578 13.9592C4.78294 13.8264 4.70831 13.6462 4.70831 13.4583V7.08333C4.70831 6.89547 4.78294 6.71531 4.91578 6.58247C5.04862 6.44963 5.22878 6.375 5.41665 6.375H7.54165ZM8.25069 8.5L8.24998 12.0565L8.28185 12.0799C9.55331 12.9724 11.2094 13.4583 13.2083 13.4583C15.3361 13.4583 17.3159 12.6395 18.7581 11.2413L18.8523 11.147L18.7673 11.0762C18.4328 10.8142 18.0274 10.6588 17.6035 10.63L17.4583 10.625L15.9623 10.6243C16.014 10.8524 16.0416 11.0897 16.0416 11.3333V12.0417H9.66665V10.625L14.4762 10.6243L14.4521 10.569C14.3164 10.2854 14.1076 10.043 13.8472 9.8667C13.5868 9.69043 13.2841 9.58666 12.9703 9.56604L12.8541 9.5625H10.7787C10.4496 9.22585 10.0564 8.95842 9.62239 8.77595C9.18836 8.59349 8.72222 8.49966 8.2514 8.5H8.25069ZM6.83331 7.79167H6.12498V12.75H6.83331V7.79167ZM13.6659 2.53229L13.9166 2.78375L14.1674 2.533C14.3316 2.36741 14.5269 2.23587 14.7421 2.14596C14.9572 2.05604 15.188 2.0095 15.4212 2.00903C15.6544 2.00855 15.8854 2.05414 16.101 2.14317C16.3165 2.23221 16.5123 2.36294 16.6772 2.52786C16.8421 2.69279 16.9728 2.88865 17.0617 3.10421C17.1507 3.31977 17.1962 3.55078 17.1957 3.78398C17.1951 4.01718 17.1485 4.24798 17.0586 4.46312C16.9686 4.67826 16.837 4.87352 16.6714 5.03767L13.9166 7.79167L11.1612 5.03625C10.9956 4.87205 10.8641 4.67676 10.7742 4.4616C10.6843 4.24643 10.6377 4.01562 10.6373 3.78242C10.6368 3.54922 10.6824 3.31822 10.7714 3.10268C10.8604 2.88715 10.9912 2.69132 11.1561 2.52645C11.321 2.36157 11.5169 2.23089 11.7324 2.14192C11.948 2.05294 12.179 2.00742 12.4122 2.00796C12.6454 2.00851 12.8762 2.0551 13.0913 2.14508C13.3065 2.23506 13.5017 2.36665 13.6659 2.53229ZM12.1642 3.53458C12.1055 3.59297 12.0691 3.67007 12.0614 3.7525C12.0536 3.83493 12.075 3.91748 12.1217 3.98579L12.1628 4.03467L13.9166 5.78708L15.6705 4.03467C15.7291 3.97607 15.7654 3.89874 15.7729 3.81615C15.7804 3.73357 15.7587 3.65097 15.7116 3.58275L15.6705 3.53317C15.6118 3.47461 15.5344 3.43849 15.4518 3.43111C15.3693 3.42374 15.2867 3.44556 15.2186 3.49279L15.169 3.53388L13.9159 4.78621L12.6643 3.53246L12.6161 3.49279C12.5479 3.44565 12.4653 3.42395 12.3827 3.43145C12.3002 3.43896 12.2228 3.47521 12.1642 3.53388V3.53458Z" fill="black"/>
</g>
<defs>
<filter id="filter0_d" x="0" y="0" width="25" height="25" filterUnits="userSpaceOnUse" color-interpolation-filters="sRGB">
<feFlood flood-opacity="0" result="BackgroundImageFix"/>
<feColorMatrix in="SourceAlpha" type="matrix" values="0 0 0 0 0 0 0 0 0 0 0 0 0 0 0 0 0 0 127 0"/>
<feOffset dy="4"/>
<feGaussianBlur stdDeviation="2"/>
<feColorMatrix type="matrix" values="0 0 0 0 0 0 0 0 0 0 0 0 0 0 0 0 0 0 0.25 0"/>
<feBlend mode="normal" in2="BackgroundImageFix" result="effect1_dropShadow"/>
<feBlend mode="normal" in="SourceGraphic" in2="effect1_dropShadow" result="shape"/>
</filter>
</defs>
</svg>
