<svg width="17" height="18" viewBox="0 0 17 18" fill="none" xmlns="http://www.w3.org/2000/svg">
<path d="M15.5834 12.7252C15.583 13.6939 15.2519 14.6334 14.6448 15.3883C14.0377 16.1431 13.1911 16.668 12.245 16.876L11.7931 15.5203C12.2069 15.4521 12.6005 15.293 12.9454 15.0544C13.2903 14.8158 13.578 14.5037 13.7877 14.1405H12.0417C11.666 14.1405 11.3056 13.9912 11.04 13.7255C10.7743 13.4599 10.625 13.0995 10.625 12.7238V9.89047C10.625 9.51474 10.7743 9.15441 11.04 8.88873C11.3056 8.62306 11.666 8.4738 12.0417 8.4738H14.1228C13.9499 7.10452 13.2833 5.84537 12.2481 4.93261C11.2129 4.01986 9.88017 3.51623 8.50002 3.51623C7.11987 3.51623 5.78715 4.01986 4.75193 4.93261C3.7167 5.84537 3.05013 7.10452 2.87727 8.4738H4.95835C5.33408 8.4738 5.69441 8.62306 5.96009 8.88873C6.22576 9.15441 6.37502 9.51474 6.37502 9.89047V12.7238C6.37502 13.0995 6.22576 13.4599 5.96009 13.7255C5.69441 13.9912 5.33408 14.1405 4.95835 14.1405H2.83335C2.45763 14.1405 2.0973 13.9912 1.83162 13.7255C1.56594 13.4599 1.41669 13.0995 1.41669 12.7238V9.18213C1.41669 5.27001 4.5879 2.0988 8.50002 2.0988C12.4121 2.0988 15.5834 5.27001 15.5834 9.18213V12.7252ZM14.1667 12.7238V9.89047H12.0417V12.7238H14.1667ZM2.83335 9.89047V12.7238H4.95835V9.89047H2.83335Z" fill="black"/>
</svg>
