<svg width="17" height="17" viewBox="0 0 17 17" fill="none" xmlns="http://www.w3.org/2000/svg">
<path d="M8.5 16.8074L3.99217 12.2995C3.10062 11.408 2.49347 10.272 2.24749 9.03542C2.00152 7.79879 2.12777 6.517 2.61028 5.35212C3.09279 4.18725 3.90989 3.19161 4.95825 2.49112C6.00661 1.79063 7.23915 1.41675 8.5 1.41675C9.76086 1.41675 10.9934 1.79063 12.0418 2.49112C13.0901 3.19161 13.9072 4.18725 14.3897 5.35212C14.8722 6.517 14.9985 7.79879 14.7525 9.03542C14.5065 10.272 13.8994 11.408 13.0078 12.2995L8.5 16.8074ZM12.0063 11.2979C12.6996 10.6045 13.1718 9.721 13.3631 8.75919C13.5544 7.79738 13.4562 6.80045 13.0809 5.89446C12.7056 4.98847 12.07 4.21412 11.2547 3.66931C10.4393 3.12451 9.48065 2.83372 8.5 2.83372C7.51936 2.83372 6.56074 3.12451 5.74535 3.66931C4.92997 4.21412 4.29445 4.98847 3.91915 5.89446C3.54385 6.80045 3.44563 7.79738 3.63691 8.75919C3.82818 9.721 4.30037 10.6045 4.99375 11.2979L8.5 14.8042L12.0063 11.2979ZM8.5 9.20836C8.12428 9.20836 7.76394 9.0591 7.49827 8.79343C7.23259 8.52775 7.08334 8.16742 7.08334 7.79169C7.08334 7.41597 7.23259 7.05563 7.49827 6.78996C7.76394 6.52428 8.12428 6.37503 8.5 6.37503C8.87573 6.37503 9.23606 6.52428 9.50174 6.78996C9.76741 7.05563 9.91667 7.41597 9.91667 7.79169C9.91667 8.16742 9.76741 8.52775 9.50174 8.79343C9.23606 9.0591 8.87573 9.20836 8.5 9.20836Z" fill="black"/>
</svg>
