<svg width="17" height="17" viewBox="0 0 17 17" fill="none" xmlns="http://www.w3.org/2000/svg">
<path d="M1.4165 3.54169L6.37484 1.41669L10.6248 3.54169L15.0895 1.62848C15.1434 1.60538 15.2021 1.59602 15.2606 1.60124C15.319 1.60646 15.3751 1.6261 15.4241 1.6584C15.473 1.6907 15.5132 1.73465 15.5409 1.78629C15.5687 1.83794 15.5832 1.89567 15.5832 1.95431V13.4584L10.6248 15.5834L6.37484 13.4584L1.91021 15.3716C1.85632 15.3947 1.79753 15.404 1.73913 15.3988C1.68072 15.3936 1.62453 15.3739 1.57559 15.3416C1.52665 15.3093 1.48649 15.2654 1.45873 15.2137C1.43096 15.1621 1.41645 15.1044 1.4165 15.0457V3.54169ZM11.3332 13.7381L14.1665 12.5241V3.56506L11.3332 4.77915V13.7381ZM9.9165 13.6454V4.77135L7.08317 3.35469V12.2287L9.9165 13.6454ZM5.6665 12.2209V3.2619L2.83317 4.47598V13.435L5.6665 12.2209Z" fill="black"/>
</svg>
