<svg width="17" height="17" viewBox="0 0 17 17" fill="none" xmlns="http://www.w3.org/2000/svg">
<path d="M3.517 3.6097L6.02875 12.4001L8.18208 8.09344L12.175 6.49615L3.517 3.6097ZM2.05358 1.6292L15.3745 6.06903C15.4434 6.09188 15.5037 6.13538 15.5471 6.19363C15.5905 6.25187 15.6149 6.32205 15.6171 6.39465C15.6192 6.46725 15.599 6.53877 15.5592 6.59949C15.5193 6.66022 15.4618 6.70723 15.3943 6.73415L9.20846 9.20836L6.07408 15.4771C6.04219 15.5409 5.99175 15.5937 5.92939 15.6283C5.86702 15.663 5.79564 15.678 5.72458 15.6715C5.65353 15.6649 5.58612 15.637 5.53119 15.5914C5.47626 15.5459 5.43637 15.4848 5.41675 15.4162L1.60096 2.06199C1.58328 1.99995 1.58289 1.93426 1.59981 1.87201C1.61674 1.80976 1.65035 1.75332 1.69701 1.70878C1.74367 1.66423 1.8016 1.63327 1.86457 1.61925C1.92754 1.60523 1.99314 1.60866 2.05429 1.6292H2.05358Z" fill="black"/>
</svg>
