<svg width="17" height="17" viewBox="0 0 17 17" fill="none" xmlns="http://www.w3.org/2000/svg">
<path d="M3.51675 3.6097L6.0285 12.4001L8.18184 8.09344L12.1747 6.49615L3.51675 3.6097ZM2.05334 1.6292L15.3743 6.06903C15.4432 6.09188 15.5034 6.13538 15.5468 6.19363C15.5902 6.25187 15.6147 6.32205 15.6168 6.39465C15.619 6.46725 15.5988 6.53877 15.5589 6.59949C15.5191 6.66022 15.4615 6.70723 15.3941 6.73415L9.20821 9.20836L6.07384 15.4771C6.04194 15.5409 5.99151 15.5937 5.92914 15.6283C5.86678 15.663 5.79539 15.678 5.72434 15.6715C5.65328 15.6649 5.58587 15.637 5.53094 15.5914C5.47601 15.5459 5.43613 15.4848 5.4165 15.4162L1.60071 2.06199C1.58304 1.99995 1.58264 1.93426 1.59957 1.87201C1.6165 1.80976 1.6501 1.75332 1.69676 1.70878C1.74342 1.66423 1.80136 1.63327 1.86433 1.61925C1.92729 1.60523 1.99289 1.60866 2.05405 1.6292H2.05334Z" fill="black"/>
</svg>
