<svg width="17" height="18" viewBox="0 0 17 18" fill="none" xmlns="http://www.w3.org/2000/svg">
<path d="M3.54167 6.3488H13.4583V4.2238H3.54167V6.3488ZM9.91667 14.1405V7.76546H3.54167V14.1405H9.91667ZM11.3333 14.1405H13.4583V7.76546H11.3333V14.1405ZM2.83333 2.80713H14.1667C14.3545 2.80713 14.5347 2.88176 14.6675 3.01459C14.8004 3.14743 14.875 3.3276 14.875 3.51546V14.8488C14.875 15.0367 14.8004 15.2168 14.6675 15.3497C14.5347 15.4825 14.3545 15.5571 14.1667 15.5571H2.83333C2.64547 15.5571 2.4653 15.4825 2.33247 15.3497C2.19963 15.2168 2.125 15.0367 2.125 14.8488V3.51546C2.125 3.3276 2.19963 3.14743 2.33247 3.01459C2.4653 2.88176 2.64547 2.80713 2.83333 2.80713Z" fill="black"/>
</svg>
