<svg width="17" height="17" viewBox="0 0 17 17" fill="none" xmlns="http://www.w3.org/2000/svg">
<path d="M7.72105 1.48749L14.7328 2.48978L15.7344 9.50228L9.22343 16.0133C9.09059 16.1461 8.91046 16.2207 8.72264 16.2207C8.53481 16.2207 8.35468 16.1461 8.22184 16.0133L1.20934 9.00078C1.07655 8.86795 1.00195 8.68781 1.00195 8.49999C1.00195 8.31216 1.07655 8.13203 1.20934 7.9992L7.72105 1.48749ZM8.22184 2.99057L2.71172 8.49999L8.72264 14.5102L14.2321 9.00078L13.4812 3.7414L8.22184 2.99057ZM9.72351 7.4984C9.45778 7.23258 9.30853 6.87208 9.3086 6.49622C9.30863 6.31011 9.34532 6.12583 9.41657 5.9539C9.48782 5.78197 9.59224 5.62575 9.72386 5.49418C9.85549 5.3626 10.0117 5.25824 10.1837 5.18705C10.3556 5.11585 10.5399 5.07923 10.7261 5.07926C11.1019 5.07933 11.4624 5.22871 11.7281 5.49453C11.9938 5.76035 12.1431 6.12085 12.143 6.49672C12.1429 6.87258 11.9936 7.23303 11.7277 7.49876C11.4619 7.76449 11.1014 7.91374 10.7256 7.91367C10.3497 7.9136 9.98924 7.76423 9.72351 7.4984Z" fill="black"/>
</svg>
