<svg width="17" height="17" viewBox="0 0 17 17" fill="none" xmlns="http://www.w3.org/2000/svg">
<path d="M13.8563 8.56872L14.9407 10.4479C15.6257 11.6337 15.2191 13.1502 14.0341 13.8345C13.6565 14.0519 13.2294 14.1667 12.7945 14.1667H11.3332V15.9375L7.79153 13.4583L11.3332 10.9792V12.75H12.7938C12.9801 12.75 13.1635 12.7004 13.325 12.6076C13.8336 12.3144 14.0072 11.6641 13.7146 11.1563L12.6294 9.27705L13.8563 8.56872ZM5.17353 6.46993L5.54895 10.7766L4.01611 9.89118L3.28582 11.1563C3.19232 11.3178 3.14345 11.5012 3.14345 11.6875C3.14345 12.274 3.61874 12.75 4.20595 12.75H6.37486V14.1667H4.20595C2.83674 14.1667 1.72678 13.0567 1.72678 11.6875C1.72678 11.2526 1.84153 10.8248 2.05899 10.4479L2.78857 9.18214L1.25574 8.29743L5.17282 6.46993H5.17353ZM9.73945 2.10305C10.1163 2.32051 10.4294 2.6336 10.6468 3.01043L11.3764 4.2748L12.9107 3.38939L12.5352 7.69676L8.61674 5.86926L10.1503 4.98385L9.41999 3.71876C9.32649 3.55726 9.19261 3.42339 9.03111 3.32989C8.52324 3.03664 7.87299 3.21089 7.57974 3.71876L6.49457 5.59797L5.26774 4.88964L6.35361 3.01043C7.03786 1.82468 8.5544 1.4181 9.74016 2.10305H9.73945Z" fill="black"/>
</svg>
