<svg width="17" height="17" viewBox="0 0 17 17" fill="none" xmlns="http://www.w3.org/2000/svg">
<path d="M12.0417 8.50002C12.2296 8.50002 12.4098 8.57465 12.5426 8.70749C12.6754 8.84033 12.7501 9.02049 12.7501 9.20835V15.5834H11.3334V9.91669H5.66672V15.5834H4.25006V9.20835C4.25006 9.02049 4.32468 8.84033 4.45752 8.70749C4.59036 8.57465 4.77053 8.50002 4.95839 8.50002H12.0417ZM8.50006 11.3334V12.75H7.08339V11.3334H8.50006ZM8.50006 4.25002C9.28945 4.24978 10.0633 4.46941 10.7349 4.88427C11.4065 5.29914 11.9493 5.89285 12.3024 6.59885L11.0345 7.23281C10.7993 6.76189 10.4375 6.36579 9.98981 6.08895C9.54209 5.81211 9.0261 5.66546 8.4997 5.66546C7.97331 5.66546 7.45732 5.81211 7.0096 6.08895C6.56188 6.36579 6.20013 6.76189 5.96493 7.23281L4.69772 6.59885C5.05085 5.89285 5.59362 5.29914 6.26521 4.88427C6.9368 4.46941 7.71066 4.24978 8.50006 4.25002ZM8.50006 1.41669C9.81566 1.4164 11.1053 1.78252 12.2246 2.474C13.3438 3.16547 14.2483 4.15499 14.8368 5.33165L13.5696 5.9656C13.0989 5.02421 12.3752 4.23252 11.4798 3.67928C10.5844 3.12605 9.55259 2.83313 8.50006 2.83335C7.44752 2.83313 6.41572 3.12605 5.52031 3.67928C4.6249 4.23252 3.90126 5.02421 3.43051 5.9656L2.1626 5.33165C2.75112 4.15488 3.65577 3.1653 4.77513 2.47381C5.8945 1.78232 7.18433 1.41627 8.50006 1.41669Z" fill="black"/>
</svg>
