<svg width="15" height="15" viewBox="0 0 15 15" fill="none" xmlns="http://www.w3.org/2000/svg">
<path d="M11.7723 10.7704L14.8061 13.8034L13.8038 14.8057L10.7707 11.7719C9.64214 12.6766 8.23841 13.1687 6.79199 13.1667C3.27299 13.1667 0.416992 10.3107 0.416992 6.79166C0.416992 3.27266 3.27299 0.416656 6.79199 0.416656C10.311 0.416656 13.167 3.27266 13.167 6.79166C13.169 8.23807 12.677 9.6418 11.7723 10.7704ZM10.3514 10.2448C11.2503 9.32032 11.7524 8.08113 11.7503 6.79166C11.7503 4.05182 9.53112 1.83332 6.79199 1.83332C4.05216 1.83332 1.83366 4.05182 1.83366 6.79166C1.83366 9.53078 4.05216 11.75 6.79199 11.75C8.08146 11.752 9.32066 11.25 10.2451 10.351L10.3514 10.2448Z" fill="black"/>
</svg>
