<svg width="17" height="18" viewBox="0 0 17 18" fill="none" xmlns="http://www.w3.org/2000/svg">
<path d="M1.41669 9.18213C1.41669 8.56942 1.4946 7.97583 1.64052 7.40846C2.03185 7.42903 2.42125 7.34099 2.76567 7.15407C3.11008 6.96716 3.39611 6.68864 3.59212 6.34932C3.78814 6.01 3.88651 5.62308 3.87636 5.23134C3.86621 4.8396 3.74793 4.4583 3.5346 4.12958C4.39094 3.28707 5.44767 2.67644 6.60523 2.35521C6.78301 2.70475 7.05405 2.99828 7.38835 3.2033C7.72265 3.40833 8.10715 3.51684 8.49931 3.51684C8.89147 3.51684 9.27598 3.40833 9.61027 3.2033C9.94457 2.99828 10.2156 2.70475 10.3934 2.35521C11.551 2.67644 12.6077 3.28707 13.464 4.12958C13.2505 4.45836 13.132 4.83981 13.1218 5.23173C13.1115 5.62364 13.2099 6.01075 13.4061 6.35022C13.6022 6.68969 13.8884 6.96828 14.2331 7.15517C14.5777 7.34206 14.9673 7.42997 15.3588 7.40917C15.5047 7.97583 15.5826 8.56942 15.5826 9.18213C15.5826 9.79484 15.5047 10.3884 15.3588 10.9558C14.9674 10.9351 14.5779 11.023 14.2334 11.2099C13.8889 11.3967 13.6027 11.6752 13.4066 12.0146C13.2105 12.3539 13.1121 12.7409 13.1222 13.1327C13.1324 13.5245 13.2507 13.9059 13.464 14.2347C12.6077 15.0772 11.551 15.6878 10.3934 16.009C10.2156 15.6595 9.94457 15.366 9.61027 15.1609C9.27598 14.9559 8.89147 14.8474 8.49931 14.8474C8.10715 14.8474 7.72265 14.9559 7.38835 15.1609C7.05405 15.366 6.78301 15.6595 6.60523 16.009C5.44767 15.6878 4.39094 15.0772 3.5346 14.2347C3.74817 13.9059 3.86662 13.5244 3.87685 13.1325C3.88708 12.7406 3.78868 12.3535 3.59255 12.014C3.39643 11.6746 3.11021 11.396 2.76557 11.2091C2.42093 11.0222 2.03131 10.9343 1.63981 10.9551C1.4946 10.3891 1.41669 9.79554 1.41669 9.18213ZM4.81952 11.3071C5.26577 12.0799 5.39327 12.9689 5.21902 13.8033C5.50802 14.0087 5.81544 14.1865 6.13773 14.3345C6.78703 13.7529 7.62828 13.4315 8.50002 13.4321C9.39252 13.4321 10.2269 13.7658 10.8623 14.3345C11.1846 14.1865 11.492 14.0087 11.781 13.8033C11.6021 12.9504 11.7444 12.0616 12.1805 11.3071C12.6159 10.5523 13.3146 9.98478 14.1426 9.71338C14.1754 9.35997 14.1754 9.00429 14.1426 8.65088C13.3143 8.37963 12.6153 7.81208 12.1798 7.05713C11.7437 6.3027 11.6014 5.41382 11.7803 4.56096C11.4914 4.35549 11.1838 4.17762 10.8616 4.02971C10.2125 4.6112 9.37151 4.93256 8.50002 4.93213C7.62828 4.93273 6.78703 4.61137 6.13773 4.02971C5.81553 4.17763 5.50794 4.35549 5.21902 4.56096C5.39792 5.41382 5.25566 6.3027 4.81952 7.05713C4.38416 7.81195 3.68547 8.37948 2.85744 8.65088C2.82468 9.00429 2.82468 9.35997 2.85744 9.71338C3.68573 9.98463 4.38469 10.5522 4.82023 11.3071H4.81952ZM8.50002 11.3071C7.93644 11.3071 7.39593 11.0832 6.99742 10.6847C6.5989 10.2862 6.37502 9.74571 6.37502 9.18213C6.37502 8.61854 6.5989 8.07804 6.99742 7.67952C7.39593 7.28101 7.93644 7.05713 8.50002 7.05713C9.06361 7.05713 9.60411 7.28101 10.0026 7.67952C10.4011 8.07804 10.625 8.61854 10.625 9.18213C10.625 9.74571 10.4011 10.2862 10.0026 10.6847C9.60411 11.0832 9.06361 11.3071 8.50002 11.3071ZM8.50002 9.89046C8.68788 9.89046 8.86805 9.81583 9.00089 9.68299C9.13373 9.55016 9.20835 9.36999 9.20835 9.18213C9.20835 8.99427 9.13373 8.8141 9.00089 8.68126C8.86805 8.54842 8.68788 8.47379 8.50002 8.47379C8.31216 8.47379 8.13199 8.54842 7.99915 8.68126C7.86631 8.8141 7.79169 8.99427 7.79169 9.18213C7.79169 9.36999 7.86631 9.55016 7.99915 9.68299C8.13199 9.81583 8.31216 9.89046 8.50002 9.89046Z" fill="black"/>
</svg>
