<svg width="17" height="17" viewBox="0 0 17 17" fill="none" xmlns="http://www.w3.org/2000/svg">
<path d="M2.83332 11.3334V2.83335H1.41666V1.41669H3.54166C3.72952 1.41669 3.90969 1.49131 4.04252 1.62415C4.17536 1.75699 4.24999 1.93716 4.24999 2.12502V10.625H13.0602L14.4769 4.95835H5.66666V3.54169H15.385C15.4927 3.54169 15.5989 3.56624 15.6957 3.61347C15.7924 3.6607 15.8772 3.72936 15.9434 3.81424C16.0096 3.89913 16.0557 3.99799 16.0779 4.10333C16.1002 4.20867 16.0982 4.3177 16.0721 4.42215L14.3012 11.5055C14.2629 11.6587 14.1744 11.7946 14.0499 11.8918C13.9254 11.9889 13.7721 12.0417 13.6142 12.0417H3.54166C3.35379 12.0417 3.17363 11.9671 3.04079 11.8342C2.90795 11.7014 2.83332 11.5212 2.83332 11.3334ZM4.24999 16.2917C3.87427 16.2917 3.51393 16.1424 3.24826 15.8768C2.98258 15.6111 2.83332 15.2507 2.83332 14.875C2.83332 14.4993 2.98258 14.139 3.24826 13.8733C3.51393 13.6076 3.87427 13.4584 4.24999 13.4584C4.62571 13.4584 4.98605 13.6076 5.25172 13.8733C5.5174 14.139 5.66666 14.4993 5.66666 14.875C5.66666 15.2507 5.5174 15.6111 5.25172 15.8768C4.98605 16.1424 4.62571 16.2917 4.24999 16.2917ZM12.75 16.2917C12.3743 16.2917 12.0139 16.1424 11.7483 15.8768C11.4826 15.6111 11.3333 15.2507 11.3333 14.875C11.3333 14.4993 11.4826 14.139 11.7483 13.8733C12.0139 13.6076 12.3743 13.4584 12.75 13.4584C13.1257 13.4584 13.486 13.6076 13.7517 13.8733C14.0174 14.139 14.1667 14.4993 14.1667 14.875C14.1667 15.2507 14.0174 15.6111 13.7517 15.8768C13.486 16.1424 13.1257 16.2917 12.75 16.2917Z" fill="black"/>
</svg>
