<svg width="15" height="15" viewBox="0 0 15 15" fill="none" xmlns="http://www.w3.org/2000/svg">
<g opacity="0.5">
<path d="M7.5 15C11.6421 15 15 11.6421 15 7.5C15 3.35786 11.6421 0 7.5 0C3.35786 0 0 3.35786 0 7.5C0 11.6421 3.35786 15 7.5 15Z" fill="#FFCC4D"/>
<path d="M4.38132 9.84209C4.40007 9.91668 4.86799 11.6667 7.50007 11.6667C10.1326 11.6667 10.6001 9.91668 10.6188 9.84209C10.6417 9.75168 10.6009 9.65793 10.5201 9.61126C10.4388 9.56501 10.3372 9.57876 10.2701 9.64334C10.2622 9.65126 9.4559 10.4167 7.50007 10.4167C5.54424 10.4167 4.73757 9.65126 4.73007 9.64376C4.69007 9.60418 4.63674 9.58334 4.5834 9.58334C4.5484 9.58334 4.51298 9.59209 4.4809 9.61001C4.39923 9.65668 4.3584 9.75126 4.38132 9.84209Z" fill="#664500"/>
<path d="M4.99992 7.08335C5.57521 7.08335 6.04158 6.43044 6.04158 5.62502C6.04158 4.8196 5.57521 4.16669 4.99992 4.16669C4.42462 4.16669 3.95825 4.8196 3.95825 5.62502C3.95825 6.43044 4.42462 7.08335 4.99992 7.08335Z" fill="#664500"/>
<path d="M10 7.08335C10.5753 7.08335 11.0417 6.43044 11.0417 5.62502C11.0417 4.8196 10.5753 4.16669 10 4.16669C9.42474 4.16669 8.95837 4.8196 8.95837 5.62502C8.95837 6.43044 9.42474 7.08335 10 7.08335Z" fill="#664500"/>
</g>
</svg>
