<svg width="17" height="18" viewBox="0 0 17 18" fill="none" xmlns="http://www.w3.org/2000/svg">
<path d="M10.3417 6.34879H14.875C15.2508 6.34879 15.6111 6.49805 15.8768 6.76373C16.1425 7.0294 16.2917 7.38974 16.2917 7.76546V9.25579C16.2919 9.44093 16.2558 9.6243 16.1855 9.79554L13.9932 15.1187C13.9397 15.2484 13.8489 15.3594 13.7322 15.4375C13.6155 15.5155 13.4783 15.5572 13.338 15.5571H1.41671C1.22885 15.5571 1.04868 15.4825 0.91584 15.3497C0.783002 15.2168 0.708374 15.0367 0.708374 14.8488V7.76546C0.708374 7.5776 0.783002 7.39743 0.91584 7.26459C1.04868 7.13176 1.22885 7.05713 1.41671 7.05713H3.88312C3.99653 7.05716 4.10828 7.02996 4.20898 6.97782C4.30969 6.92568 4.3964 6.85012 4.46183 6.7575L8.32437 1.28421C8.3732 1.21502 8.44521 1.16561 8.52734 1.14495C8.60947 1.12428 8.69628 1.13374 8.77204 1.17159L10.057 1.81404C10.4186 1.99478 10.7074 2.29381 10.8756 2.66143C11.0438 3.02906 11.0811 3.44316 10.9813 3.83492L10.3417 6.34879ZM4.95837 8.18196V14.1405H12.8634L14.875 9.25579V7.76546H10.3417C10.1259 7.76543 9.91305 7.71612 9.71925 7.62129C9.52544 7.52645 9.35586 7.38861 9.22344 7.21826C9.09102 7.04792 8.99926 6.84958 8.95516 6.63838C8.91105 6.42717 8.91577 6.20869 8.96896 5.99959L9.60858 3.48642C9.6286 3.40803 9.62117 3.32514 9.58754 3.25156C9.5539 3.17797 9.49609 3.11812 9.42371 3.08196L8.9555 2.84821L5.61925 7.57421C5.44217 7.82496 5.2155 8.03038 4.95837 8.18196ZM3.54171 8.47379H2.12504V14.1405H3.54171V8.47379Z" fill="black"/>
</svg>
